<?xml version="1.0" encoding="utf-8"?>
<svg xmlns="http://www.w3.org/2000/svg" viewBox="0 0 800 600">
  <rect x="100" y="150" width="200" height="160" rx="5" ry="5" fill="#0277bd" stroke="#0277bd" stroke-width="2"/>
  <rect x="100" y="150" width="200" height="40" rx="5" ry="5" fill="#0277bd" stroke="#0277bd" stroke-width="2"/>
  <text x="200" y="175" text-anchor="middle" fill="white" font-family="Arial" font-weight="bold" font-size="18" style="white-space: pre;">VENUE</text>
  <rect x="100" y="190" width="200" height="120" rx="0" ry="0" fill="white" stroke="#0277bd" stroke-width="2"/>
  <line x1="100" y1="190" x2="300" y2="190" stroke="#0277bd" stroke-width="1"/>
  <text x="110" y="210" fill="#333" font-family="Arial" font-size="14" style="white-space: pre;">PK VenueId (int)</text>
  <text x="110" y="235" fill="#333" font-family="Arial" font-size="14" style="white-space: pre;">VenueName (nvarchar)</text>
  <text x="110" y="260" fill="#333" font-family="Arial" font-size="14" style="white-space: pre;">Location (nvarchar)</text>
  <text x="110" y="280" fill="#333" font-family="Arial" font-size="14" style="white-space: pre;">Capacity (int)</text>
  <text x="110" y="300" fill="#333" font-family="Arial" font-size="14" style="white-space: pre;">ImageUrl (nvarchar)</text>
  <rect x="500" y="150" width="200" height="140" rx="5" ry="5" fill="#2e7d32" stroke="#2e7d32" stroke-width="2"/>
  <rect x="500" y="150" width="200" height="40" rx="5" ry="5" fill="#2e7d32" stroke="#2e7d32" stroke-width="2"/>
  <text x="600" y="175" text-anchor="middle" fill="white" font-family="Arial" font-weight="bold" font-size="18" style="white-space: pre;">EVENT</text>
  <rect x="500" y="190" width="200" height="100" rx="0" ry="0" fill="white" stroke="#2e7d32" stroke-width="2"/>
  <line x1="500" y1="190" x2="700" y2="190" stroke="#2e7d32" stroke-width="1"/>
  <text x="510" y="210" fill="#333" font-family="Arial" font-size="14" style="white-space: pre;">PK EventId (int)</text>
  <text x="510" y="235" fill="#333" font-family="Arial" font-size="14" style="white-space: pre;">EventName (nvarchar)</text>
  <text x="510" y="260" fill="#333" font-family="Arial" font-size="14" style="white-space: pre;">EventDate (datetime2)</text>
  <text x="510" y="285" fill="#333" font-family="Arial" font-size="14" style="white-space: pre;">Description (nvarchar)</text>
  <rect x="300" y="400" width="200" height="140" rx="5" ry="5" fill="#e65100" stroke="#e65100" stroke-width="2"/>
  <rect x="300" y="400" width="200" height="40" rx="5" ry="5" fill="#e65100" stroke="#e65100" stroke-width="2"/>
  <text x="400" y="425" text-anchor="middle" fill="white" font-family="Arial" font-weight="bold" font-size="18" style="white-space: pre;">BOOKING</text>
  <rect x="300" y="440" width="200" height="100" rx="0" ry="0" fill="white" stroke="#e65100" stroke-width="2"/>
  <line x1="300" y1="440" x2="500" y2="440" stroke="#e65100" stroke-width="1"/>
  <text x="310" y="460" fill="#333" font-family="Arial" font-size="14" style="white-space: pre;">PK BookingId (int)</text>
  <text x="310" y="485" fill="#333" font-family="Arial" font-size="14" style="white-space: pre;">FK EventId (int)</text>
  <text x="310" y="510" fill="#333" font-family="Arial" font-size="14" style="white-space: pre;">FK VenueId (int)</text>
  <text x="310" y="535" fill="#333" font-family="Arial" font-size="14" style="white-space: pre;">BookingDate (datetime2)</text>
  <line x1="300" y1="170" x2="500" y2="170" stroke="#333" stroke-width="2"/>
  <text x="320" y="165" fill="#333" font-family="Arial" font-weight="bold" font-size="16" style="white-space: pre;">1</text>
  <text x="480" y="165" fill="#333" font-family="Arial" font-weight="bold" font-size="16" style="white-space: pre;">0..*</text>
  <text x="400" y="155" text-anchor="middle" fill="#333" font-family="Arial" font-size="14" style="white-space: pre;">hosts</text>
  <line x1="500" y1="210" x2="300" y2="210" stroke="#333" stroke-width="2"/>
  <text x="480" y="225" fill="#333" font-family="Arial" font-weight="bold" font-size="16" style="white-space: pre;">1</text>
  <text x="320" y="225" fill="#333" font-family="Arial" font-weight="bold" font-size="16" style="white-space: pre;">0..*</text>
  <text x="400" y="230" text-anchor="middle" fill="#333" font-family="Arial" font-size="14" style="white-space: pre;">is hosted at</text>
  <line x1="180" y1="310.001" x2="180" y2="467.438" stroke="#333" stroke-width="2" style=""/>
  <line x1="178.718" y1="468.718" x2="298.719" y2="468.718" stroke="#333" stroke-width="2" style=""/>
  <text x="170" y="330" fill="#333" font-family="Arial" font-weight="bold" font-size="16" style="white-space: pre;">1</text>
  <text x="271.026" y="463.077" fill="#333" font-family="Arial" font-weight="bold" font-size="16" style="white-space: pre; font-size: 16px;">0..*</text>
  <text x="165" y="375" text-anchor="middle" fill="#333" font-family="Arial" font-size="14" style="white-space: pre;">has</text>
  <line x1="220" y1="310" x2="220" y2="428.205" stroke="#333" stroke-width="2" style=""/>
  <line x1="218.718" y1="429.487" x2="298.718" y2="429.487" stroke="#333" stroke-width="2"/>
  <text x="283.846" y="419.487" fill="#333" font-family="Arial" font-weight="bold" font-size="16" style="white-space: pre; font-size: 16px;">1</text>
  <text x="230" y="327.436" fill="#333" font-family="Arial" font-weight="bold" font-size="16" style="white-space: pre; font-size: 16px;">0..*</text>
  <text x="258.718" y="389.359" text-anchor="middle" fill="#333" font-family="Arial" font-size="14" style="white-space: pre; font-size: 14px;">belongs to</text>
  <line x1="580" y1="290" x2="580" y2="420" stroke="#333" stroke-width="2"/>
  <line x1="580" y1="420" x2="500" y2="420" stroke="#333" stroke-width="2"/>
  <text x="570" y="310" fill="#333" font-family="Arial" font-weight="bold" font-size="16" style="white-space: pre;">1</text>
  <text x="520" y="415" fill="#333" font-family="Arial" font-weight="bold" font-size="16" style="white-space: pre;">0..*</text>
  <text x="565" y="355" text-anchor="middle" fill="#333" font-family="Arial" font-size="14" style="white-space: pre;">has</text>
  <line x1="620" y1="290" x2="620" y2="480" stroke="#333" stroke-width="2"/>
  <line x1="620" y1="480" x2="500" y2="480" stroke="#333" stroke-width="2"/>
  <text x="520" y="475" fill="#333" font-family="Arial" font-weight="bold" font-size="16" style="white-space: pre;">1</text>
  <text x="630" y="310" fill="#333" font-family="Arial" font-weight="bold" font-size="16" style="white-space: pre;">0..*</text>
  <text x="560" y="470" text-anchor="middle" fill="#333" font-family="Arial" font-size="14" style="white-space: pre;">is for</text>
  <text x="400" y="80" text-anchor="middle" fill="#333" font-family="Arial" font-weight="bold" font-size="22" style="white-space: pre;">EventEase Entity-Relationship Diagram</text>
</svg>